# xmcd
#
# Track frame offsets:
#	150
#	12354
#	21633
#	35078
#	46342
#	56985
#	69170
#	78036
#	87697
#	99235
#	100877
#	115086
#	130018
#	142213
#	152200
#	162637
#	163905
#	169899
#	180836
#	192094
#	204628
#	212375
#	213238
#	226512
#	237527
#
# Disc length: 3344 seconds
#
# Revision: 1
# Processed by: cddbd v1.5.2PL0 Copyright (c) Steve Scherf et al.
# Submitted via: audiograbber 1.83.01
#
DISCID=5b0d0e19
DTITLE=Various Artist - Essential Bluegrass Anthology CD1
DYEAR=2008
DGENRE=Bluegrass
TTITLE0=Lester Flatt and Earl Scruggs - Foggy Mountain Breakdown
TTITLE1=Bill Monroe and His Blue Grass Boys - Blue Moon Of Kentucky
TTITLE2=The Stanley Brothers - I'm A Man Of Constant Sorrow
TTITLE3=Johnny Duncan and His Blue Grass Boys - Last Train To San Fernando
TTITLE4=Reno And Smiley - I'm Gone, Long Gone
TTITLE5=Molly O'Day and The Cumberland Mountain Folks - Poor Ellen Smith
TTITLE6=Jimmy Martin And The Osborne Brothers - She's Just A Cute Thing
TTITLE7=Wilma Lee and Stoney Cooper And The Clinch Mountain Clan - Are You Walkin
TTITLE7=g And A-Talking For The Lord
TTITLE8=Mac Wiseman - Going Like Wildfire
TTITLE9=The Lonesome Pine Fiddlers - Pain In My Heart
TTITLE10=Jim Eanes and The Shenandoah Valley Boys - I Cried Again
TTITLE11=Frank Hunter And His Black Mountain Boys - Tennessee Boy
TTITLE12=Sonny Osborne - I'm Gonna Leave You
TTITLE13=Bill Monroe and His Blue Grass Boys - Y'all Come
TTITLE14=Lester Flatt and Earl Scruggs - Get In Line Brother
TTITLE15=Bailey Brothers and The Happy Valley Boys - Beautiful Brown Eyes
TTITLE16=The Stanley Brothers - Too Late To Cry
TTITLE17=Carl Story and His Rambling Mountaineers - He Will Set Your Fields On Fi
TTITLE17=re
TTITLE18=Molly O'Day and The Cumberland Mountain Folks - Higher In My Prayer
TTITLE19=Bailes Brothers - Something Got Hold On Me
TTITLE20=Reno And Smiley - Tennessee Cut-Up Breakdown
TTITLE21=Blue Sky Boys - Garden In The Sky
TTITLE22=Mac Wiseman - Dreaming Of A Little Cabin
TTITLE23=Jim and Jesse And The Virginia Boys - Are You Missing Me
TTITLE24=Brown's Ferry Four - Will The Circle Be Unbroken
EXTD=
EXTT0=
EXTT1=
EXTT2=
EXTT3=
EXTT4=
EXTT5=
EXTT6=
EXTT7=
EXTT8=
EXTT9=
EXTT10=
EXTT11=
EXTT12=
EXTT13=
EXTT14=
EXTT15=
EXTT16=
EXTT17=
EXTT18=
EXTT19=
EXTT20=
EXTT21=
EXTT22=
EXTT23=
EXTT24=
PLAYORDER=
